<svg xmlns="http://www.w3.org/2000/svg" xmlns:xlink="http://www.w3.org/1999/xlink" width="500" zoomAndPan="magnify" viewBox="0 0 375 374.999991" height="500" preserveAspectRatio="xMidYMid meet" version="1.0"><defs><g/><clipPath id="f0d99ecb92"><path d="M 22.023438 114.757812 L 104.523438 114.757812 L 104.523438 224.257812 L 22.023438 224.257812 Z M 22.023438 114.757812 " clip-rule="nonzero"/></clipPath><clipPath id="13c4987371"><path d="M 27.566406 114.757812 L 105.566406 114.757812 L 105.566406 218.257812 L 27.566406 218.257812 Z M 27.566406 114.757812 " clip-rule="nonzero"/></clipPath><clipPath id="91b13bbe6a"><path d="M 33.335938 150.085938 L 93.335938 150.085938 L 93.335938 218.335938 L 33.335938 218.335938 Z M 33.335938 150.085938 " clip-rule="nonzero"/></clipPath><clipPath id="65eaba4839"><path d="M 74 171.066406 L 225 171.066406 L 225 234 L 74 234 Z M 74 171.066406 " clip-rule="nonzero"/></clipPath><clipPath id="b331a149c4"><rect x="0" width="242" y="0" height="48"/></clipPath><clipPath id="a7d3ebd25c"><rect x="0" width="84" y="0" height="23"/></clipPath><clipPath id="0746933c42"><rect x="0" width="80" y="0" height="24"/></clipPath></defs><g clip-path="url(#f0d99ecb92)"><path fill="#c40101" d="M 50.855469 114.796875 C 50.621094 114.796875 50.363281 114.832031 50.066406 114.910156 C 49.132812 115.164062 47.808594 115.878906 47.054688 116.785156 C 46.347656 117.632812 46.125 118.671875 45.917969 119.78125 C 45.910156 119.824219 45.921875 119.871094 45.949219 119.902344 C 45.953125 119.910156 45.957031 119.914062 45.964844 119.917969 L 45.960938 119.917969 L 49.078125 123.371094 C 49.125 123.421875 49.148438 123.488281 49.144531 123.558594 C 49.136719 123.628906 49.101562 123.691406 49.050781 123.734375 L 42.828125 128.738281 C 42.785156 128.773438 42.726562 128.792969 42.671875 128.792969 C 42.652344 128.792969 42.636719 128.789062 42.617188 128.785156 C 42.542969 128.769531 42.480469 128.722656 42.445312 128.652344 L 39.855469 123.574219 C 39.820312 123.5 39.820312 123.414062 39.855469 123.34375 L 42.09375 119.003906 C 42.097656 118.992188 42.105469 118.976562 42.105469 118.964844 C 42.117188 118.910156 42.097656 118.859375 42.054688 118.824219 C 41.277344 118.191406 40.523438 117.601562 39.773438 117.265625 C 39.039062 116.929688 38.296875 116.835938 37.523438 116.765625 C 37.515625 116.765625 37.507812 116.765625 37.5 116.765625 C 37.449219 116.765625 37.402344 116.792969 37.375 116.839844 L 35.914062 119.4375 C 35.878906 119.496094 35.824219 119.539062 35.757812 119.558594 C 35.738281 119.5625 35.714844 119.566406 35.691406 119.566406 C 35.648438 119.566406 35.601562 119.554688 35.5625 119.53125 L 29.816406 116.082031 L 29.800781 116.074219 C 29.78125 116.0625 29.761719 116.058594 29.738281 116.058594 C 29.714844 116.058594 29.691406 116.066406 29.671875 116.078125 C 28.507812 116.695312 27.457031 117.285156 26.992188 117.96875 C 26.828125 118.210938 26.734375 118.476562 26.695312 118.753906 L 26.691406 118.757812 C 26.625 119.222656 26.691406 119.71875 26.777344 120.257812 C 26.785156 120.300781 26.808594 120.335938 26.847656 120.359375 C 29.363281 122.238281 31.929688 124.175781 33.148438 126.792969 C 34.386719 129.441406 34.234375 132.757812 34.082031 135.996094 L 34.078125 136.058594 C 34.074219 136.175781 33.992188 136.273438 33.878906 136.296875 L 24.855469 138.179688 C 24.804688 138.191406 24.765625 138.230469 24.746094 138.277344 C 24.359375 139.15625 24.003906 140 23.878906 140.835938 C 23.84375 141.078125 23.828125 141.320312 23.835938 141.558594 C 23.871094 142.679688 24.449219 143.800781 25.066406 144.992188 C 25.105469 145.0625 25.105469 145.148438 25.070312 145.21875 C 25.035156 145.292969 24.964844 145.34375 24.886719 145.355469 L 24.875 145.359375 C 24.875 145.359375 24.867188 145.359375 24.867188 145.359375 C 24.382812 145.4375 24 145.507812 23.722656 146.1875 C 23.609375 146.464844 23.511719 146.851562 23.445312 147.28125 C 23.335938 148.007812 23.324219 148.828125 23.441406 149.449219 C 23.613281 150.34375 24.0625 150.839844 24.574219 151.347656 C 24.605469 151.375 24.640625 151.386719 24.679688 151.386719 C 24.679688 151.386719 24.679688 151.386719 24.683594 151.386719 L 33.824219 151.589844 C 33.898438 151.59375 33.96875 151.628906 34.015625 151.6875 C 34.0625 151.746094 34.082031 151.824219 34.0625 151.898438 L 33.769531 153.21875 C 33.746094 153.332031 33.648438 153.410156 33.535156 153.417969 L 22.605469 153.996094 C 22.535156 154 22.480469 154.046875 22.46875 154.113281 C 22.320312 154.617188 22.183594 155.113281 22.109375 155.617188 C 22.054688 155.992188 22.03125 156.367188 22.0625 156.753906 C 22.140625 157.753906 22.582031 158.835938 23.011719 159.550781 C 23.375 160.148438 23.722656 160.472656 24.089844 160.773438 C 24.113281 160.796875 24.148438 160.808594 24.179688 160.808594 C 24.199219 160.808594 24.21875 160.804688 24.238281 160.796875 L 29.027344 158.921875 C 29.054688 158.910156 29.085938 158.90625 29.117188 158.90625 C 29.195312 158.90625 29.269531 158.941406 29.316406 159.003906 C 29.386719 159.089844 29.390625 159.214844 29.324219 159.304688 C 27.976562 161.203125 26.644531 163.078125 25.605469 166.769531 C 25.246094 168.046875 24.921875 169.546875 24.679688 171.164062 C 24.21875 174.222656 24.058594 177.6875 24.5 180.867188 C 25.179688 185.726562 27.277344 189.945312 29.394531 194.207031 C 29.414062 194.246094 29.421875 194.289062 29.421875 194.332031 L 28.328125 216.445312 C 28.324219 216.484375 28.339844 216.523438 28.363281 216.550781 C 29.058594 217.503906 29.769531 218.40625 31.492188 219.03125 C 32.878906 219.539062 34.90625 219.859375 36.644531 219.859375 C 37.214844 219.859375 37.753906 219.824219 38.234375 219.75 C 40.046875 219.464844 40.941406 218.605469 41.839844 217.675781 C 41.871094 217.648438 41.886719 217.613281 41.890625 217.570312 L 42.175781 209.929688 C 42.179688 209.839844 42.230469 209.757812 42.3125 209.71875 C 42.347656 209.699219 42.386719 209.6875 42.429688 209.6875 C 42.476562 209.6875 42.523438 209.699219 42.5625 209.726562 C 44.898438 211.191406 47.222656 212.648438 49.4375 213.816406 C 51.648438 214.984375 53.75 215.867188 55.863281 216.753906 C 55.96875 216.796875 56.03125 216.902344 56.015625 217.015625 L 55.460938 221.75 C 55.453125 221.800781 55.472656 221.847656 55.507812 221.878906 C 55.519531 221.886719 55.535156 221.898438 55.546875 221.902344 C 57.488281 222.964844 59.371094 223.957031 61.195312 224.113281 C 61.375 224.128906 61.554688 224.136719 61.734375 224.136719 C 63.371094 224.136719 64.984375 223.523438 66.648438 222.859375 C 66.703125 222.84375 66.742188 222.796875 66.75 222.742188 L 67.105469 220.277344 C 67.113281 220.210938 67.152344 220.148438 67.207031 220.109375 C 67.25 220.078125 67.300781 220.0625 67.355469 220.0625 C 67.371094 220.0625 67.382812 220.0625 67.398438 220.0625 L 67.398438 220.066406 C 71.53125 220.789062 75.640625 221.511719 79.992188 221.628906 C 80.433594 221.640625 80.882812 221.648438 81.324219 221.648438 C 85.269531 221.648438 89.289062 221.195312 92.289062 220.609375 C 95.527344 219.980469 97.574219 219.191406 99.597656 218.398438 C 99.640625 218.382812 99.675781 218.351562 99.691406 218.3125 L 99.695312 218.304688 C 101.492188 213.859375 103.265625 209.441406 104.015625 204.769531 C 104.035156 204.65625 104.050781 204.550781 104.066406 204.4375 C 104.761719 199.808594 104.46875 194.90625 103.597656 189.566406 C 102.703125 184.097656 101.203125 178.199219 99.605469 174.511719 C 98.023438 170.847656 96.351562 169.371094 94.65625 167.875 L 94.652344 167.871094 C 94.609375 167.835938 94.578125 167.785156 94.570312 167.726562 L 94.570312 167.730469 C 94.324219 166.40625 94.085938 165.109375 93.785156 164.1875 C 93.488281 163.28125 93.128906 162.742188 92.757812 162.179688 C 92.703125 162.097656 92.703125 161.988281 92.757812 161.902344 C 92.804688 161.832031 92.886719 161.789062 92.96875 161.789062 C 92.984375 161.789062 92.996094 161.789062 93.011719 161.792969 L 97.425781 162.539062 C 97.433594 162.542969 97.441406 162.542969 97.449219 162.542969 C 97.480469 162.542969 97.511719 162.53125 97.539062 162.511719 C 98.03125 162.152344 98.484375 161.785156 98.84375 161.0625 C 99.089844 160.570312 99.292969 159.902344 99.390625 159.246094 C 99.453125 158.832031 99.472656 158.429688 99.4375 158.078125 C 99.355469 157.242188 98.96875 156.660156 98.523438 156.050781 L 98.519531 156.050781 C 98.5 156.011719 98.464844 155.984375 98.421875 155.972656 C 96.636719 155.59375 94.871094 155.21875 93.417969 155.035156 C 92.234375 154.882812 91.253906 154.855469 90.3125 154.855469 C 90.070312 154.855469 89.835938 154.859375 89.59375 154.859375 L 89.589844 154.859375 C 89.496094 154.859375 89.40625 154.804688 89.363281 154.714844 L 88.796875 153.523438 C 88.761719 153.441406 88.765625 153.347656 88.816406 153.273438 C 88.863281 153.203125 88.941406 153.160156 89.027344 153.160156 C 89.03125 153.160156 89.035156 153.160156 89.035156 153.160156 L 89.039062 153.164062 L 98.957031 153.570312 C 98.957031 153.570312 98.960938 153.570312 98.960938 153.570312 C 99 153.570312 99.035156 153.554688 99.0625 153.53125 C 99.070312 153.519531 99.078125 153.511719 99.085938 153.5 C 99.6875 152.539062 100.230469 151.625 100.367188 150.699219 L 100.371094 150.679688 L 100.367188 150.699219 C 100.378906 150.636719 100.382812 150.574219 100.390625 150.515625 C 100.390625 150.511719 100.390625 150.507812 100.390625 150.503906 L 100.390625 150.5 C 100.472656 149.519531 100.082031 148.5 99.621094 147.421875 C 99.601562 147.375 99.5625 147.339844 99.511719 147.332031 C 99.503906 147.332031 99.496094 147.332031 99.488281 147.332031 C 99.484375 147.332031 99.484375 147.332031 99.484375 147.332031 L 97.101562 147.398438 C 97.097656 147.398438 97.09375 147.398438 97.09375 147.398438 C 97.011719 147.398438 96.9375 147.359375 96.890625 147.296875 C 96.839844 147.234375 96.828125 147.148438 96.851562 147.070312 L 96.855469 147.0625 C 97.042969 146.460938 97.226562 145.882812 97.304688 145.363281 C 97.339844 145.117188 97.351562 144.894531 97.335938 144.691406 L 97.335938 144.695312 L 97.332031 144.679688 C 97.277344 144.082031 96.953125 143.617188 96.566406 143.105469 C 96.550781 143.078125 96.527344 143.054688 96.5 143.039062 L 93.609375 141.679688 C 93.492188 141.625 93.433594 141.488281 93.476562 141.367188 L 94.136719 139.46875 L 94.140625 139.46875 C 94.140625 139.460938 94.144531 139.453125 94.144531 139.445312 C 94.15625 139.386719 94.125 139.324219 94.074219 139.292969 C 93.46875 138.953125 92.898438 138.648438 92.414062 138.527344 C 92.222656 138.480469 92.039062 138.460938 91.863281 138.460938 C 91.597656 138.460938 91.347656 138.503906 91.085938 138.554688 C 91.042969 138.566406 91.007812 138.59375 90.988281 138.628906 L 89.714844 140.324219 C 89.664062 140.386719 89.589844 140.425781 89.511719 140.425781 C 89.496094 140.425781 89.480469 140.421875 89.464844 140.417969 L 80.421875 138.671875 C 80.289062 138.648438 80.199219 138.527344 80.21875 138.394531 C 80.359375 137.296875 80.492188 136.242188 79.957031 134.757812 C 79.414062 133.25 78.183594 131.292969 77.042969 130.097656 C 77.039062 130.09375 77.039062 130.089844 77.035156 130.085938 C 75.90625 128.902344 74.878906 128.46875 73.808594 128.019531 C 73.742188 127.992188 73.691406 127.933594 73.667969 127.863281 C 73.644531 127.796875 73.652344 127.71875 73.691406 127.65625 L 78.058594 120.324219 C 78.0625 120.320312 78.0625 120.316406 78.066406 120.3125 C 78.085938 120.269531 78.082031 120.222656 78.0625 120.179688 C 77.84375 119.777344 77.621094 119.382812 77.335938 118.988281 C 77.003906 118.53125 76.605469 118.097656 75.988281 117.847656 C 75.402344 117.613281 74.609375 117.539062 73.757812 117.472656 C 73.75 117.472656 73.742188 117.472656 73.738281 117.472656 C 73.691406 117.472656 73.644531 117.496094 73.617188 117.535156 C 72.378906 119.359375 71.164062 121.152344 70.402344 122.644531 C 69.617188 124.171875 69.300781 125.378906 68.984375 126.609375 L 68.984375 126.617188 C 68.964844 126.691406 68.910156 126.753906 68.839844 126.785156 C 68.808594 126.796875 68.773438 126.804688 68.738281 126.804688 C 68.699219 126.804688 68.65625 126.796875 68.621094 126.777344 L 68.027344 126.464844 C 67.941406 126.417969 67.886719 126.328125 67.890625 126.230469 L 67.890625 126.21875 C 67.914062 125.660156 67.9375 125.089844 68.035156 124.421875 C 68.113281 123.90625 68.238281 123.332031 68.4375 122.65625 C 68.894531 121.140625 69.753906 119.097656 70.613281 117.066406 C 70.632812 117.03125 70.636719 116.996094 70.628906 116.957031 C 70.53125 116.527344 70.398438 116.167969 69.761719 115.851562 C 69.757812 115.851562 69.757812 115.847656 69.753906 115.847656 C 69.078125 115.519531 67.878906 115.261719 66.96875 115.261719 C 66.828125 115.261719 66.691406 115.269531 66.5625 115.28125 C 66.5625 115.28125 66.558594 115.28125 66.558594 115.28125 C 65.722656 115.371094 65.328125 115.761719 64.914062 116.226562 C 64.890625 116.253906 64.878906 116.285156 64.878906 116.320312 L 64.875 116.320312 L 63.226562 125.691406 C 63.210938 125.78125 63.144531 125.855469 63.058594 125.886719 L 59.890625 126.972656 C 59.863281 126.984375 59.835938 126.988281 59.808594 126.988281 C 59.722656 126.988281 59.644531 126.945312 59.59375 126.871094 L 51.960938 115.082031 C 51.945312 115.050781 51.917969 115.023438 51.878906 115.007812 C 51.566406 114.894531 51.253906 114.796875 50.855469 114.796875 Z M 33.910156 144.566406 C 33.976562 144.566406 34.035156 144.589844 34.082031 144.632812 C 34.140625 144.683594 34.167969 144.757812 34.164062 144.835938 L 34.066406 146.273438 C 34.0625 146.34375 34.027344 146.410156 33.972656 146.453125 C 33.925781 146.488281 33.871094 146.507812 33.8125 146.507812 C 33.800781 146.507812 33.789062 146.507812 33.773438 146.503906 L 29.238281 145.777344 C 29.113281 145.757812 29.023438 145.648438 29.023438 145.527344 C 29.023438 145.402344 29.117188 145.296875 29.238281 145.277344 L 33.875 144.570312 C 33.886719 144.566406 33.898438 144.566406 33.910156 144.566406 Z M 79.71875 146.058594 C 79.730469 146.058594 79.742188 146.058594 79.757812 146.0625 L 87.875 147.265625 C 88 147.285156 88.089844 147.390625 88.089844 147.515625 C 88.089844 147.640625 88 147.746094 87.878906 147.765625 L 83.097656 148.515625 C 83.085938 148.519531 83.074219 148.519531 83.058594 148.519531 C 83.015625 148.519531 82.972656 148.507812 82.933594 148.484375 L 79.59375 146.53125 C 79.488281 146.46875 79.441406 146.339844 79.480469 146.226562 C 79.515625 146.125 79.613281 146.058594 79.71875 146.058594 Z M 79.71875 146.058594 " fill-opacity="1" fill-rule="nonzero"/></g><g clip-path="url(#13c4987371)"><path fill="#d82020" d="M 54.804688 114.792969 C 54.585938 114.792969 54.34375 114.824219 54.058594 114.902344 C 53.179688 115.140625 51.929688 115.8125 51.214844 116.671875 C 50.546875 117.472656 50.335938 118.453125 50.140625 119.503906 C 50.132812 119.542969 50.144531 119.585938 50.171875 119.617188 C 50.175781 119.621094 50.179688 119.628906 50.183594 119.632812 L 53.128906 122.890625 C 53.171875 122.941406 53.195312 123.003906 53.1875 123.070312 C 53.183594 123.136719 53.152344 123.195312 53.101562 123.238281 L 47.222656 127.960938 C 47.179688 127.996094 47.128906 128.015625 47.074219 128.015625 C 47.058594 128.015625 47.039062 128.011719 47.023438 128.011719 C 46.953125 127.996094 46.894531 127.949219 46.863281 127.886719 L 44.414062 123.082031 C 44.378906 123.015625 44.378906 122.933594 44.414062 122.867188 L 46.527344 118.769531 C 46.535156 118.757812 46.539062 118.742188 46.542969 118.730469 C 46.550781 118.679688 46.53125 118.628906 46.492188 118.597656 C 45.757812 118 45.046875 117.445312 44.335938 117.125 C 43.640625 116.808594 42.941406 116.71875 42.210938 116.652344 C 42.203125 116.652344 42.195312 116.652344 42.191406 116.652344 C 42.140625 116.652344 42.09375 116.675781 42.070312 116.722656 L 40.691406 119.175781 C 40.65625 119.234375 40.605469 119.273438 40.542969 119.289062 C 40.523438 119.296875 40.503906 119.296875 40.480469 119.296875 C 40.4375 119.296875 40.394531 119.285156 40.359375 119.265625 L 34.929688 116.003906 L 34.914062 116 C 34.894531 115.988281 34.875 115.984375 34.855469 115.984375 C 34.835938 115.984375 34.8125 115.992188 34.792969 116.003906 C 33.695312 116.585938 32.699219 117.140625 32.261719 117.789062 C 32.105469 118.019531 32.019531 118.269531 31.980469 118.53125 L 31.980469 118.535156 C 31.914062 118.972656 31.976562 119.445312 32.058594 119.953125 C 32.066406 119.992188 32.089844 120.027344 32.125 120.046875 C 34.503906 121.824219 36.925781 123.652344 38.078125 126.125 C 39.246094 128.628906 39.101562 131.761719 38.960938 134.820312 L 38.957031 134.882812 C 38.953125 134.988281 38.875 135.082031 38.769531 135.105469 L 30.242188 136.886719 C 30.195312 136.894531 30.15625 136.929688 30.140625 136.976562 C 29.773438 137.804688 29.4375 138.605469 29.320312 139.394531 C 29.285156 139.625 29.269531 139.851562 29.277344 140.074219 C 29.3125 141.132812 29.859375 142.195312 30.445312 143.320312 C 30.480469 143.386719 30.480469 143.46875 30.445312 143.535156 C 30.410156 143.605469 30.347656 143.652344 30.269531 143.664062 L 30.261719 143.664062 C 30.261719 143.664062 30.253906 143.667969 30.253906 143.667969 C 29.796875 143.742188 29.4375 143.808594 29.171875 144.449219 C 29.0625 144.710938 28.972656 145.074219 28.910156 145.484375 C 28.808594 146.167969 28.796875 146.945312 28.90625 147.53125 C 29.070312 148.378906 29.496094 148.84375 29.980469 149.324219 C 30.003906 149.347656 30.039062 149.363281 30.074219 149.363281 C 30.078125 149.363281 30.078125 149.363281 30.078125 149.363281 L 38.714844 149.554688 C 38.785156 149.554688 38.855469 149.589844 38.898438 149.644531 C 38.941406 149.703125 38.957031 149.773438 38.941406 149.84375 L 38.664062 151.09375 C 38.640625 151.199219 38.550781 151.273438 38.445312 151.28125 L 28.117188 151.824219 C 28.050781 151.828125 28 151.875 27.988281 151.9375 C 27.847656 152.414062 27.71875 152.878906 27.648438 153.355469 C 27.59375 153.710938 27.574219 154.070312 27.601562 154.429688 C 27.675781 155.378906 28.09375 156.402344 28.5 157.074219 C 28.84375 157.636719 29.171875 157.945312 29.519531 158.230469 C 29.542969 158.25 29.574219 158.261719 29.605469 158.261719 C 29.625 158.261719 29.640625 158.257812 29.660156 158.253906 L 34.183594 156.480469 C 34.210938 156.46875 34.242188 156.464844 34.269531 156.464844 C 34.34375 156.464844 34.414062 156.496094 34.457031 156.558594 C 34.523438 156.640625 34.527344 156.757812 34.464844 156.84375 C 33.191406 158.636719 31.933594 160.40625 30.953125 163.894531 C 30.613281 165.101562 30.304688 166.519531 30.074219 168.046875 C 29.640625 170.933594 29.488281 174.207031 29.90625 177.210938 C 30.546875 181.804688 32.527344 185.789062 34.53125 189.816406 C 34.550781 189.851562 34.558594 189.894531 34.554688 189.933594 L 33.523438 210.828125 C 33.519531 210.863281 33.535156 210.898438 33.558594 210.925781 C 34.214844 211.824219 34.882812 212.675781 36.511719 213.269531 C 37.824219 213.746094 39.738281 214.050781 41.378906 214.050781 C 41.917969 214.050781 42.429688 214.019531 42.882812 213.949219 C 44.597656 213.679688 45.441406 212.867188 46.289062 211.988281 C 46.316406 211.964844 46.335938 211.929688 46.335938 211.890625 L 46.605469 204.671875 C 46.609375 204.585938 46.660156 204.511719 46.734375 204.46875 C 46.769531 204.453125 46.808594 204.441406 46.84375 204.441406 C 46.890625 204.441406 46.933594 204.453125 46.972656 204.480469 C 49.179688 205.863281 51.375 207.238281 53.464844 208.34375 C 55.554688 209.445312 57.542969 210.28125 59.539062 211.117188 C 59.636719 211.160156 59.695312 211.257812 59.683594 211.363281 L 59.15625 215.839844 C 59.152344 215.882812 59.167969 215.929688 59.203125 215.960938 C 59.214844 215.96875 59.226562 215.976562 59.242188 215.980469 L 59.238281 215.984375 C 61.074219 216.984375 62.851562 217.921875 64.574219 218.070312 C 64.746094 218.085938 64.914062 218.09375 65.085938 218.09375 C 66.628906 218.09375 68.15625 217.511719 69.730469 216.886719 L 69.726562 216.886719 C 69.777344 216.871094 69.816406 216.828125 69.824219 216.773438 L 70.160156 214.445312 C 70.167969 214.382812 70.203125 214.324219 70.253906 214.289062 C 70.296875 214.257812 70.34375 214.242188 70.394531 214.242188 C 70.410156 214.242188 70.421875 214.242188 70.4375 214.246094 C 74.339844 214.929688 78.222656 215.613281 82.335938 215.722656 C 82.753906 215.734375 83.171875 215.742188 83.59375 215.742188 C 87.320312 215.742188 91.117188 215.3125 93.953125 214.761719 C 97.011719 214.164062 98.941406 213.421875 100.855469 212.671875 C 100.894531 212.660156 100.929688 212.628906 100.945312 212.589844 L 100.945312 212.585938 C 102.644531 208.386719 104.320312 204.210938 105.03125 199.792969 C 105.046875 199.691406 105.0625 199.585938 105.078125 199.484375 C 105.734375 195.105469 105.460938 190.476562 104.632812 185.433594 C 103.789062 180.265625 102.371094 174.691406 100.867188 171.207031 C 99.371094 167.75 97.789062 166.351562 96.1875 164.941406 L 96.183594 164.9375 C 96.140625 164.902344 96.117188 164.851562 96.105469 164.800781 C 95.875 163.550781 95.648438 162.324219 95.363281 161.453125 C 95.082031 160.597656 94.746094 160.089844 94.394531 159.558594 C 94.34375 159.480469 94.34375 159.378906 94.394531 159.296875 C 94.4375 159.230469 94.515625 159.1875 94.59375 159.1875 C 94.605469 159.1875 94.621094 159.191406 94.632812 159.191406 L 98.804688 159.898438 C 98.8125 159.898438 98.820312 159.902344 98.828125 159.902344 C 98.855469 159.902344 98.886719 159.890625 98.910156 159.875 C 99.375 159.53125 99.804688 159.183594 100.140625 158.503906 C 100.375 158.035156 100.566406 157.410156 100.660156 156.785156 C 100.71875 156.394531 100.738281 156.015625 100.707031 155.683594 C 100.628906 154.894531 100.261719 154.34375 99.839844 153.769531 C 99.820312 153.730469 99.785156 153.703125 99.746094 153.695312 C 98.058594 153.335938 96.390625 152.980469 95.019531 152.808594 C 93.898438 152.664062 92.976562 152.640625 92.082031 152.640625 C 91.855469 152.640625 91.632812 152.640625 91.40625 152.644531 C 91.40625 152.644531 91.402344 152.644531 91.402344 152.644531 C 91.3125 152.644531 91.226562 152.589844 91.1875 152.507812 L 90.652344 151.378906 C 90.617188 151.304688 90.625 151.214844 90.671875 151.144531 C 90.714844 151.078125 90.789062 151.039062 90.871094 151.039062 C 90.871094 151.039062 90.875 151.039062 90.878906 151.039062 L 100.25 151.425781 C 100.25 151.425781 100.253906 151.425781 100.253906 151.425781 C 100.292969 151.425781 100.324219 151.410156 100.351562 151.386719 C 100.359375 151.378906 100.367188 151.371094 100.371094 151.359375 C 100.941406 150.453125 101.453125 149.585938 101.585938 148.710938 L 101.585938 148.691406 L 101.585938 148.710938 C 101.59375 148.652344 101.601562 148.597656 101.605469 148.539062 C 101.605469 148.535156 101.605469 148.53125 101.605469 148.527344 L 101.605469 148.523438 C 101.683594 147.597656 101.3125 146.636719 100.878906 145.613281 C 100.863281 145.570312 100.820312 145.539062 100.773438 145.53125 C 100.765625 145.53125 100.757812 145.53125 100.75 145.53125 C 100.75 145.53125 100.75 145.53125 100.746094 145.53125 L 98.496094 145.59375 C 98.496094 145.59375 98.492188 145.59375 98.488281 145.59375 C 98.414062 145.59375 98.34375 145.558594 98.300781 145.5 C 98.253906 145.4375 98.238281 145.355469 98.261719 145.28125 L 98.265625 145.273438 C 98.445312 144.707031 98.613281 144.160156 98.6875 143.667969 C 98.722656 143.4375 98.734375 143.226562 98.71875 143.039062 L 98.71875 143.023438 C 98.664062 142.460938 98.359375 142.019531 97.992188 141.535156 C 97.980469 141.511719 97.957031 141.488281 97.929688 141.476562 L 95.195312 140.191406 C 95.085938 140.136719 95.03125 140.011719 95.074219 139.894531 L 95.699219 138.101562 C 95.703125 138.097656 95.703125 138.089844 95.703125 138.082031 C 95.714844 138.023438 95.6875 137.964844 95.636719 137.9375 C 95.066406 137.613281 94.527344 137.328125 94.070312 137.214844 C 93.886719 137.167969 93.714844 137.148438 93.546875 137.148438 C 93.300781 137.148438 93.0625 137.191406 92.816406 137.238281 C 92.773438 137.246094 92.742188 137.273438 92.722656 137.308594 L 91.519531 138.910156 C 91.472656 138.96875 91.402344 139.003906 91.328125 139.003906 C 91.3125 139.003906 91.296875 139.003906 91.28125 139 L 82.738281 137.351562 C 82.613281 137.328125 82.53125 137.210938 82.546875 137.085938 C 82.679688 136.050781 82.804688 135.054688 82.300781 133.648438 C 81.785156 132.226562 80.625 130.378906 79.550781 129.246094 L 79.546875 129.246094 C 79.546875 129.242188 79.542969 129.242188 79.539062 129.238281 C 78.476562 128.121094 77.5 127.710938 76.492188 127.285156 C 76.429688 127.257812 76.378906 127.203125 76.359375 127.140625 C 76.335938 127.074219 76.34375 127 76.378906 126.941406 L 80.507812 120.015625 C 80.507812 120.011719 80.511719 120.007812 80.511719 120.003906 C 80.53125 119.964844 80.53125 119.917969 80.511719 119.878906 C 80.304688 119.5 80.09375 119.125 79.824219 118.753906 C 79.511719 118.320312 79.132812 117.910156 78.550781 117.675781 C 77.996094 117.453125 77.25 117.382812 76.441406 117.320312 C 76.4375 117.320312 76.429688 117.320312 76.425781 117.320312 C 76.378906 117.320312 76.335938 117.34375 76.3125 117.378906 C 75.140625 119.101562 73.996094 120.796875 73.273438 122.207031 C 72.53125 123.648438 72.234375 124.789062 71.933594 125.953125 L 71.933594 125.960938 C 71.914062 126.03125 71.863281 126.089844 71.796875 126.117188 C 71.765625 126.132812 71.734375 126.136719 71.703125 126.136719 C 71.664062 126.136719 71.625 126.128906 71.589844 126.109375 L 71.027344 125.816406 C 70.949219 125.773438 70.898438 125.6875 70.902344 125.59375 L 70.902344 125.582031 C 70.921875 125.058594 70.945312 124.519531 71.039062 123.882812 L 71.039062 123.886719 C 71.113281 123.398438 71.226562 122.855469 71.417969 122.21875 C 71.847656 120.785156 72.660156 118.855469 73.472656 116.9375 C 73.488281 116.90625 73.496094 116.867188 73.488281 116.835938 C 73.394531 116.425781 73.269531 116.085938 72.667969 115.789062 C 72.664062 115.789062 72.664062 115.789062 72.660156 115.785156 C 72.019531 115.472656 70.890625 115.230469 70.027344 115.230469 C 69.894531 115.230469 69.765625 115.238281 69.648438 115.25 C 69.644531 115.25 69.644531 115.25 69.640625 115.25 C 68.851562 115.335938 68.480469 115.707031 68.089844 116.144531 C 68.066406 116.171875 68.054688 116.199219 68.054688 116.234375 L 66.492188 125.085938 C 66.476562 125.171875 66.417969 125.242188 66.335938 125.269531 L 63.339844 126.296875 C 63.316406 126.304688 63.289062 126.3125 63.265625 126.3125 C 63.183594 126.3125 63.109375 126.269531 63.0625 126.203125 L 55.851562 115.0625 C 55.835938 115.03125 55.808594 115.007812 55.773438 114.992188 C 55.480469 114.886719 55.179688 114.792969 54.804688 114.792969 Z M 38.800781 142.917969 C 38.859375 142.917969 38.917969 142.941406 38.960938 142.980469 C 39.015625 143.03125 39.042969 143.101562 39.039062 143.171875 L 38.945312 144.53125 C 38.941406 144.597656 38.90625 144.660156 38.855469 144.699219 C 38.8125 144.734375 38.761719 144.753906 38.707031 144.753906 C 38.695312 144.753906 38.683594 144.75 38.667969 144.75 L 34.382812 144.0625 C 34.265625 144.042969 34.179688 143.941406 34.179688 143.824219 C 34.179688 143.707031 34.269531 143.605469 34.382812 143.589844 L 38.761719 142.921875 C 38.773438 142.917969 38.789062 142.917969 38.800781 142.917969 Z M 82.074219 144.328125 C 82.085938 144.328125 82.097656 144.328125 82.109375 144.332031 L 89.78125 145.46875 C 89.898438 145.488281 89.984375 145.585938 89.984375 145.703125 C 89.984375 145.824219 89.898438 145.921875 89.785156 145.941406 L 85.269531 146.648438 C 85.257812 146.652344 85.246094 146.652344 85.230469 146.652344 C 85.191406 146.652344 85.148438 146.640625 85.113281 146.621094 L 81.957031 144.773438 C 81.855469 144.714844 81.8125 144.59375 81.851562 144.488281 C 81.886719 144.390625 81.976562 144.328125 82.074219 144.328125 Z M 82.074219 144.328125 " fill-opacity="1" fill-rule="nonzero"/></g><path fill="#ffffff" d="M 53.734375 163.050781 L 53.734375 161.53125 L 53.714844 161.554688 Z M 53.734375 163.050781 " fill-opacity="1" fill-rule="nonzero"/><path fill="#ffffff" d="M 53.734375 161.53125 L 53.820312 161.445312 Z M 53.734375 161.53125 " fill-opacity="1" fill-rule="nonzero"/><path fill="#ffffff" d="M 67.671875 188.15625 L 67.78125 188.046875 L 67.625 188.15625 Z M 67.671875 188.15625 " fill-opacity="1" fill-rule="nonzero"/><path fill="#ffffff" d="M 65.722656 160.378906 L 65.65625 160.449219 L 65.679688 160.628906 L 65.851562 160.839844 L 65.875 160.9375 L 65.816406 161.082031 L 65.617188 161.148438 L 64.503906 160.992188 L 64.457031 161.082031 L 64.457031 161.183594 L 64.5625 161.210938 L 64.8125 161.425781 L 65.003906 161.277344 L 65.097656 161.261719 L 65.253906 161.335938 L 65.910156 161.335938 L 66.035156 161.28125 L 66.144531 161.28125 L 66.238281 161.378906 L 66.304688 161.378906 L 66.609375 161.664062 L 66.660156 161.675781 L 66.832031 161.433594 L 66.859375 161.320312 L 66.984375 161.1875 L 67.359375 161.335938 L 67.453125 161.335938 L 67.710938 161.175781 L 68.269531 161.1875 L 68.414062 161.242188 L 68.601562 161.242188 L 68.824219 161.0625 L 68.824219 161.019531 L 68.777344 160.898438 L 68.488281 160.667969 L 68.371094 160.667969 L 68.078125 160.5625 L 68.078125 160.503906 L 67.839844 160.457031 L 67.730469 160.34375 L 67.730469 160.257812 L 67.675781 160.207031 L 66.675781 159.984375 L 66.503906 160.023438 L 66.375 160.140625 L 66.015625 160.140625 L 65.804688 159.957031 L 65.558594 159.898438 L 65.472656 159.984375 L 65.320312 160.023438 L 65.269531 160.082031 L 65.269531 160.234375 L 65.464844 160.234375 Z M 65.722656 160.378906 " fill-opacity="1" fill-rule="nonzero"/><g clip-path="url(#91b13bbe6a)"><path fill="#ffffff" d="M 92.742188 178.519531 L 92.5625 178.429688 L 91.929688 178.429688 L 91.789062 178.351562 L 91.738281 178.351562 L 90.796875 177.738281 L 90.605469 177.453125 L 89.324219 176.742188 L 88.625 176.773438 L 88.5 176.90625 L 88.09375 176.753906 L 87.953125 176.785156 L 87.039062 176.445312 L 86.558594 176.554688 L 86.453125 176.695312 L 86.378906 176.726562 L 86.308594 176.726562 L 86.378906 176.496094 L 86.308594 176.515625 L 86.242188 176.578125 L 86.195312 176.820312 L 85.945312 177.03125 L 85.992188 176.667969 L 86.203125 176.472656 L 86.203125 176.332031 L 86.011719 176.328125 L 86.195312 176.226562 L 85.953125 175.929688 L 85.734375 175.808594 L 85.570312 175.816406 L 85.515625 175.867188 L 85.53125 175.769531 L 85.484375 175.640625 L 85.292969 175.640625 L 85.03125 175.554688 L 84.964844 175.554688 L 84.949219 175.453125 L 84.863281 175.402344 L 84.582031 175.394531 L 84.410156 175.28125 L 84.285156 175.277344 L 84.144531 175.15625 L 84.066406 175.242188 L 83.960938 175.191406 L 83.539062 175.257812 L 83.347656 175.605469 L 83.359375 175.792969 L 83.308594 175.839844 L 83.183594 175.765625 L 83.125 175.824219 L 82.957031 175.863281 L 82.695312 176.28125 L 82.695312 176.390625 L 82.535156 176.53125 L 82.523438 176.453125 L 82.574219 176.265625 L 82.632812 176.199219 L 82.652344 175.988281 L 82.363281 176.007812 L 82.277344 176.109375 L 82.277344 176.066406 L 82.132812 176.019531 L 81.65625 176.046875 L 81.570312 175.960938 L 81.472656 175.394531 L 80.96875 175.730469 L 80.851562 175.902344 L 80.46875 175.941406 L 80.285156 175.867188 L 80.503906 175.695312 L 80.570312 175.695312 L 80.8125 175.796875 L 81.328125 175.253906 L 81.292969 175.089844 L 81.195312 175.089844 L 80.964844 175.328125 L 82.210938 173.683594 L 82.21875 173.519531 L 82.164062 173.410156 L 81.960938 173.363281 L 81.835938 173.242188 L 81.761719 173.242188 L 81.636719 173.125 L 81.320312 171.878906 L 81.109375 171.5625 L 80.929688 171.59375 L 80.90625 171.460938 L 80.839844 171.398438 L 80.714844 171.535156 L 80.609375 171.429688 L 80.601562 171.25 L 80.152344 170.769531 L 79.511719 170.550781 L 79.316406 170.617188 L 79.363281 170.519531 L 78.769531 170.335938 L 78.558594 170.339844 L 78.492188 170.453125 L 78.179688 170.355469 L 77.941406 170.355469 L 77.882812 170.433594 L 77.882812 170.539062 L 77.691406 170.414062 L 77.199219 170.339844 L 77.085938 170.398438 L 76.960938 170.636719 L 76.980469 170.394531 L 76.855469 170.351562 L 76.675781 170.167969 L 76.640625 170.050781 L 76.140625 169.652344 L 76.046875 169.652344 L 76.046875 169.746094 L 75.898438 170.003906 L 75.929688 169.636719 L 75.996094 169.476562 L 75.949219 169.351562 L 75.96875 169.234375 L 75.894531 169.160156 L 75.710938 169.070312 L 75.582031 168.882812 L 75.328125 168.707031 L 75.191406 168.691406 L 75.085938 168.574219 L 74.90625 168.546875 L 74.78125 168.421875 L 73.902344 168.578125 L 73.796875 168.558594 L 73.714844 168.445312 L 74.054688 168.414062 L 74.097656 168.375 L 74.097656 168.261719 L 74.300781 167.785156 L 74.25 167.726562 L 73.910156 167.609375 L 73.847656 167.609375 L 73.78125 167.53125 L 73.621094 167.59375 L 73.621094 167.53125 L 73.382812 167.4375 L 73.304688 167.589844 L 73.210938 167.589844 L 73.144531 167.496094 L 73.144531 167.382812 L 73.09375 167.316406 L 72.835938 167.402344 L 72.929688 167.296875 L 72.941406 167.171875 L 72.882812 167.171875 L 72.746094 167.082031 L 72.789062 167.035156 L 73.324219 166.929688 L 73.378906 166.882812 L 73.324219 166.863281 L 72.097656 166.921875 L 72.070312 166.980469 L 72.125 167.054688 L 71.855469 167.074219 L 71.609375 167.179688 L 71.550781 167.265625 L 71.371094 167.3125 L 70.683594 167.21875 L 70.59375 167.101562 L 70.375 166.949219 L 69.167969 167.074219 L 68.988281 166.996094 L 68.921875 166.863281 L 68.921875 166.738281 L 68.882812 166.625 L 68.507812 166.316406 L 67.914062 166.222656 L 67.796875 166.277344 L 67.5625 166.296875 L 67.5625 166.335938 L 66.621094 166.730469 L 66.589844 166.957031 L 66.71875 167.296875 L 66.84375 167.402344 L 66.917969 167.589844 L 66.878906 167.878906 L 66.652344 168.097656 L 66.527344 168.097656 L 66.421875 168.035156 L 66.375 167.878906 L 66.261719 167.78125 L 66.179688 167.753906 L 66.203125 167.296875 L 66.421875 167.167969 L 66.535156 166.960938 L 66.457031 166.882812 L 66.410156 166.632812 L 66.277344 166.433594 L 66.296875 166.296875 L 66.410156 166.148438 L 66.535156 166.148438 L 66.777344 165.871094 L 66.777344 165.722656 L 66.582031 165.628906 L 66.363281 165.628906 L 66.09375 165.914062 L 65.933594 165.992188 L 65.828125 166.097656 L 65.425781 166.277344 L 65.273438 166.429688 L 64.707031 166.390625 L 64.554688 166.515625 L 64.554688 166.691406 L 64.425781 166.890625 L 64.371094 166.832031 L 64.371094 166.699219 L 64.265625 166.699219 L 64.140625 166.574219 L 63.691406 166.941406 L 63.554688 167.726562 L 63.46875 167.8125 L 63.34375 167.8125 L 63.277344 167.9375 L 62.734375 168.421875 L 62.761719 168.863281 L 62.648438 168.863281 L 62.648438 168.722656 L 61.84375 167.972656 L 61.546875 167.875 L 61.441406 167.769531 L 61.183594 167.789062 L 61.046875 167.707031 L 60.75 167.703125 L 59.726562 168.238281 L 59.199219 168.238281 L 59.117188 168.132812 L 59.003906 168.171875 L 58.875 168.171875 L 58.550781 167.761719 L 58.441406 167.714844 L 57.972656 167.089844 L 57.886719 167.027344 L 57.628906 166.421875 L 57.722656 166.210938 L 57.722656 166.117188 L 57.660156 166.011719 L 57.660156 165.941406 L 57.765625 165.792969 L 57.785156 165.734375 L 57.78125 165.515625 L 57.847656 165.3125 L 57.800781 165.023438 L 57.90625 164.511719 L 58.042969 164.355469 L 58.089844 164.050781 L 58.066406 163.945312 L 58 163.894531 L 58.066406 163.808594 L 58.078125 163.722656 L 58 163.570312 L 57.859375 163.503906 L 57.703125 163.503906 L 57.539062 163.40625 L 57.445312 163.195312 L 57.359375 163.128906 L 56.816406 162.996094 L 56.527344 163.039062 L 56.488281 163.019531 L 56.40625 163.019531 L 56.355469 162.984375 L 56.210938 162.964844 L 56.125 162.984375 L 56.089844 163.019531 L 55.703125 163.125 L 54.875 163.03125 L 54.835938 162.976562 L 54.621094 163.078125 L 54.59375 163.101562 L 54.335938 163.144531 L 54.085938 163.101562 L 54.007812 163.050781 L 53.992188 162.917969 L 54.28125 162.589844 L 54.355469 162.5625 L 54.355469 162.488281 L 54.402344 162.445312 L 54.453125 161.855469 L 54.402344 161.804688 L 54.441406 161.757812 L 54.441406 161.585938 L 54.574219 161.375 L 54.574219 161.257812 L 54.535156 161.175781 L 54.417969 161.171875 L 54.417969 161 L 54.449219 160.898438 L 54.601562 160.898438 L 54.601562 161.117188 L 54.6875 161.203125 L 54.6875 161.269531 L 54.765625 161.183594 L 55.070312 159.757812 L 55.472656 159.25 L 55.4375 158.914062 L 55.339844 158.78125 L 55.101562 158.867188 L 53.730469 158.867188 L 53.511719 158.988281 L 53.25 158.945312 L 52.84375 159.316406 L 52.8125 160.109375 L 52.707031 160.160156 L 52.695312 160.246094 L 52.574219 160.464844 L 52.574219 160.59375 L 51.953125 160.996094 L 51.402344 160.996094 L 51.253906 161.082031 L 49.84375 161.386719 L 49.710938 161.0625 L 49.511719 161.0625 L 49.394531 160.964844 L 48.894531 160.964844 L 47.535156 158.476562 L 47.554688 156.511719 L 47.632812 156.273438 L 47.601562 155.890625 L 47.785156 155.890625 L 47.835938 155.835938 L 47.878906 155.679688 L 47.957031 155.605469 L 47.957031 155.402344 L 46.589844 155.03125 L 46.269531 154.15625 L 45.648438 153.429688 L 45.4375 152.875 L 45.019531 152.449219 L 44.394531 152.320312 L 44.039062 152.472656 L 43.660156 153 L 43.5625 153 L 42.660156 152.527344 L 42.472656 151.878906 L 42.296875 151.644531 L 42.003906 151.519531 L 41.226562 150.851562 L 40.011719 150.851562 L 39.984375 151.089844 L 39.894531 151.175781 L 37.988281 151.175781 L 35.367188 150.199219 L 35.261719 150.09375 L 33.59375 150.179688 L 34.296875 151.570312 L 34.316406 151.78125 L 34.46875 151.933594 L 34.582031 152.410156 L 35.734375 153.476562 L 35.761719 153.664062 L 35.714844 153.734375 L 35.730469 153.90625 L 35.867188 153.960938 L 35.867188 154.105469 L 35.828125 154.105469 L 35.511719 153.953125 L 35.222656 153.953125 L 35.222656 154.074219 L 35.664062 154.46875 L 35.824219 154.535156 L 35.96875 154.753906 L 36.128906 154.777344 L 36.300781 154.746094 L 36.398438 154.648438 L 36.398438 154.792969 L 37.191406 155.550781 L 37.195312 155.933594 L 37.125 156.078125 L 37.125 156.210938 L 38.542969 157.34375 L 38.621094 157.609375 L 38.78125 157.746094 L 38.949219 157.609375 L 39.089844 157.390625 L 38.753906 156.832031 L 38.488281 156.71875 L 38.304688 156.75 L 38.179688 156.621094 L 38.164062 156.296875 L 35.347656 152.09375 L 35.316406 151.644531 L 35.164062 151.328125 L 35.183594 150.867188 L 35.109375 150.722656 L 35.144531 150.6875 L 35.652344 151.011719 L 35.957031 150.972656 L 36.132812 151.152344 L 36.46875 151.289062 L 36.476562 151.707031 L 36.707031 152.007812 L 36.785156 152.386719 L 37.992188 153.929688 L 38.113281 153.835938 L 38.285156 153.949219 L 38.21875 154.179688 L 38.476562 154.445312 L 38.757812 154.523438 L 38.839844 154.75 L 39.074219 154.828125 L 39.195312 154.945312 L 39.273438 155.15625 L 39.136719 155.308594 L 39.109375 155.5 L 39.28125 155.625 L 39.5625 155.703125 L 39.710938 155.875 L 40.027344 156.0625 L 40.113281 156.207031 L 40.144531 156.445312 L 41.808594 158.132812 L 41.957031 158.640625 L 42.097656 158.761719 L 42.164062 158.917969 L 41.992188 159.375 L 42.15625 159.460938 L 41.859375 159.71875 L 42.078125 160.140625 L 42.492188 160.5625 L 42.96875 160.699219 L 43.523438 161.253906 L 48.609375 163.207031 L 49.460938 162.851562 L 49.664062 162.679688 L 49.824219 162.804688 L 50.253906 162.851562 L 52.171875 164.488281 L 52.949219 164.519531 L 53.195312 164.738281 L 53.800781 164.882812 L 53.902344 164.941406 L 54.6875 165.042969 L 54.707031 164.957031 L 54.765625 164.894531 L 55.070312 164.9375 L 55.050781 165.074219 L 55.136719 165.191406 L 55.082031 165.246094 L 54.984375 165.210938 L 54.929688 165.210938 L 55.011719 165.371094 L 56.246094 166.605469 L 56.246094 166.769531 L 56.296875 166.820312 L 56.363281 166.847656 L 56.363281 166.90625 L 56.316406 167.019531 L 56.257812 167.019531 L 56.21875 167.058594 L 56.171875 167.183594 L 56.269531 167.355469 L 56.441406 167.488281 L 56.519531 167.488281 L 56.621094 167.621094 L 56.703125 167.652344 L 56.765625 167.601562 L 56.8125 167.601562 L 56.792969 167.46875 L 56.578125 167.289062 L 56.632812 167.238281 L 56.71875 167.269531 L 56.777344 167.335938 L 56.863281 167.363281 L 57.0625 167.59375 L 57.101562 167.6875 L 57.167969 167.746094 L 57.425781 167.824219 L 57.753906 168.050781 L 57.839844 168.222656 L 57.734375 168.359375 L 57.734375 168.453125 L 57.871094 168.503906 L 58.019531 168.511719 L 57.964844 168.460938 L 57.996094 168.332031 L 58.03125 168.332031 L 58.097656 168.40625 L 58.183594 168.605469 L 58.222656 168.644531 L 59.066406 168.714844 L 59.507812 169.144531 L 59.546875 169.105469 L 59.53125 168.980469 L 59.582031 168.925781 L 59.746094 169.144531 L 59.746094 169.238281 L 59.792969 169.367188 L 59.867188 169.441406 L 60.023438 169.453125 L 60.207031 169.261719 L 60.332031 169.28125 L 60.398438 169.210938 L 60.398438 169.105469 L 60.289062 169.039062 L 60.09375 168.808594 L 60.09375 168.664062 L 60.167969 168.589844 L 60.359375 168.589844 L 60.476562 168.542969 L 60.769531 168.15625 L 61.191406 168.117188 L 61.566406 168.558594 L 61.625 168.558594 L 61.730469 168.519531 L 61.773438 168.472656 L 61.945312 168.65625 L 61.945312 168.761719 L 61.859375 168.65625 L 61.71875 168.65625 L 61.691406 168.683594 L 61.667969 168.796875 L 61.613281 168.839844 L 61.613281 168.925781 L 62.082031 169.546875 L 62.078125 169.679688 L 62.300781 169.898438 L 62.269531 170.207031 L 62.347656 170.285156 L 62.347656 170.542969 L 62.289062 170.601562 L 62.269531 170.851562 L 62.367188 170.957031 L 62.328125 171.488281 L 62.394531 171.550781 L 62.277344 171.679688 L 62.523438 171.914062 L 62.328125 172.09375 L 62.320312 172.324219 L 62.023438 172.566406 L 62.023438 172.800781 L 61.898438 172.898438 L 61.523438 172.882812 L 61.429688 172.984375 L 61.429688 173.28125 L 61.285156 173.425781 L 61.179688 173.425781 L 61.179688 173.523438 L 61.265625 173.589844 L 61.203125 173.648438 L 61.269531 173.714844 L 61.230469 173.839844 L 61.09375 173.839844 L 61.03125 173.898438 L 60.511719 174.042969 L 60.433594 174.117188 L 60.445312 174.414062 L 60.367188 174.660156 L 60.175781 174.851562 L 60.117188 174.964844 L 60.117188 175.097656 L 60.195312 175.175781 L 59.792969 175.539062 L 59.867188 175.613281 L 59.867188 175.710938 L 59.785156 175.933594 L 59.890625 176.039062 L 59.890625 176.148438 L 59.753906 176.304688 L 60.050781 176.617188 L 60.164062 176.648438 L 60.355469 176.464844 L 60.417969 176.53125 L 60.484375 176.464844 L 60.472656 176.277344 L 60.523438 176.226562 L 60.523438 176.402344 L 60.585938 176.484375 L 60.597656 176.636719 L 60.484375 176.785156 L 60.484375 176.878906 L 60.445312 176.992188 L 60.292969 177.144531 L 60.203125 177.144531 L 59.886719 177.378906 L 59.738281 177.59375 L 59.507812 177.769531 L 59.421875 177.949219 L 59.535156 178.140625 L 59.535156 178.324219 L 59.800781 178.726562 L 59.742188 178.890625 L 59.613281 179.011719 L 59.636719 179.167969 L 60.566406 179.765625 L 63.183594 184.726562 L 63.039062 184.871094 L 63.367188 185.425781 L 63.691406 185.636719 L 63.941406 186.019531 L 66.503906 187.378906 L 66.652344 187.53125 L 66.652344 187.667969 L 67.320312 188.15625 L 67.636719 190.503906 L 67.511719 190.792969 L 67.414062 191.746094 L 67.28125 191.878906 L 67.28125 192.101562 L 67.359375 192.101562 L 67.28125 192.292969 L 67.3125 193.558594 L 67.167969 193.703125 L 67.246094 194.285156 L 66.699219 196.160156 L 66.59375 196.265625 L 66.59375 196.527344 L 66.695312 196.625 L 66.734375 197.195312 L 66.429688 197.5 L 66.59375 199.464844 L 66.441406 199.550781 L 66.441406 200.058594 L 66.375 200.253906 L 66.226562 200.40625 L 66.007812 201.410156 L 65.875 201.542969 L 65.625 202.148438 L 65.527344 202.25 L 65.476562 202.675781 L 65.375 202.675781 L 65.363281 202.957031 L 65.289062 203.035156 L 65.089844 203.015625 L 65.050781 203.054688 L 65.027344 203.484375 L 65.152344 203.617188 L 65.191406 204.347656 L 65.277344 204.480469 L 65.277344 204.875 L 65.222656 205.046875 L 65.222656 205.1875 L 65.109375 205.304688 L 64.933594 205.363281 L 64.972656 205.859375 L 64.875 205.957031 L 64.851562 206.109375 L 64.753906 206.207031 L 64.753906 206.550781 L 65.019531 206.765625 L 65.019531 206.921875 L 65.210938 206.996094 L 65.414062 206.789062 L 65.957031 206.789062 L 65.871094 206.949219 L 65.746094 206.949219 L 65.746094 207.09375 L 65.882812 207.230469 L 65.816406 207.523438 L 65.71875 207.351562 L 65.71875 207.589844 L 65.769531 207.640625 L 65.597656 207.640625 L 65.597656 207.839844 L 65.6875 207.925781 L 65.585938 208.023438 L 65.527344 208.203125 L 65.375 208.347656 L 65.519531 208.496094 L 65.519531 208.695312 L 65.300781 209.0625 L 65.488281 209.0625 L 65.769531 209.347656 L 65.617188 209.453125 L 65.617188 209.617188 L 65.433594 209.800781 L 65.289062 209.800781 L 65.289062 209.949219 L 65.414062 210.074219 L 65.585938 210.125 L 65.269531 210.125 L 65.144531 210.257812 L 65.144531 210.601562 L 65.027344 210.71875 L 65.097656 210.796875 L 65.125 210.921875 L 64.875 211.238281 L 64.816406 211.179688 L 64.816406 211.015625 L 64.714844 210.910156 L 64.410156 210.910156 L 64.476562 210.84375 L 64.667969 210.84375 L 64.667969 210.75 L 64.582031 210.660156 L 64.378906 210.660156 L 64.292969 210.574219 L 64.09375 210.574219 L 64.09375 210.746094 L 64.179688 210.746094 L 64.179688 210.992188 L 63.785156 210.992188 L 63.507812 211.269531 L 63.601562 211.359375 L 63.691406 211.269531 L 63.941406 211.269531 L 64.007812 211.203125 L 64.007812 211.269531 L 64.191406 211.453125 L 64.371094 211.511719 L 64.429688 211.453125 L 64.582031 211.453125 L 64.796875 211.667969 L 64.714844 211.753906 L 64.714844 211.921875 L 64.5 211.921875 L 64.5 212.132812 L 64.679688 212.308594 L 65.003906 212.296875 L 65.214844 212.527344 L 65.148438 212.527344 L 65.148438 212.710938 L 64.996094 212.710938 L 64.929688 212.644531 L 64.628906 212.644531 L 64.53125 212.554688 L 64.335938 212.554688 L 64.753906 212.921875 L 64.660156 213.015625 L 64.503906 213.074219 L 64.628906 213.199219 L 64.726562 213.199219 L 64.726562 213.296875 L 64.613281 213.296875 L 64.464844 213.449219 L 64.464844 213.699219 L 64.589844 213.832031 L 64.589844 213.707031 L 64.761719 213.535156 L 64.851562 213.535156 L 64.851562 213.652344 L 64.761719 213.753906 L 64.761719 213.839844 L 64.875 213.949219 L 64.875 214.117188 L 64.800781 214.035156 L 64.648438 214.003906 L 64.535156 214.109375 L 64.628906 214.207031 L 64.628906 214.265625 L 64.746094 214.386719 L 64.660156 214.386719 L 64.601562 214.4375 L 64.601562 214.578125 L 64.746094 214.648438 L 64.601562 214.648438 L 64.476562 214.773438 L 64.648438 214.773438 L 64.746094 214.871094 L 64.746094 214.960938 L 64.648438 214.960938 L 64.648438 215.082031 L 64.847656 215.082031 L 65.019531 214.839844 L 65.019531 214.957031 L 65.097656 215.082031 L 64.992188 215.082031 L 64.867188 215.3125 L 64.683594 215.3125 L 64.683594 215.445312 L 64.78125 215.546875 L 64.964844 215.578125 L 64.964844 215.800781 L 64.882812 215.933594 L 64.882812 216.105469 L 64.992188 216.105469 L 65.132812 216.246094 L 65.3125 216.246094 L 65.375 216.308594 L 65.433594 216.25 L 65.433594 216.085938 L 65.347656 216.085938 L 65.261719 215.996094 L 65.433594 215.824219 L 65.644531 215.824219 L 65.8125 215.988281 L 65.8125 216.496094 L 65.867188 216.554688 L 65.71875 216.707031 L 65.71875 216.832031 L 66.445312 216.832031 L 66.542969 216.929688 L 66.46875 216.996094 L 66.128906 216.996094 L 65.96875 217.15625 L 65.679688 217.15625 L 65.566406 217.261719 L 65.566406 217.347656 L 65.746094 217.453125 L 65.652344 217.542969 L 65.488281 217.542969 L 65.597656 217.664062 L 65.769531 217.664062 L 65.921875 217.511719 L 65.921875 217.371094 L 66.246094 217.371094 L 66.535156 217.074219 L 66.808594 217.074219 L 66.808594 217.226562 L 66.425781 217.617188 L 66.425781 217.832031 L 66.285156 217.832031 L 66.285156 217.695312 L 66.140625 217.695312 L 66.042969 217.601562 L 65.960938 217.683594 L 65.960938 217.753906 L 66.304688 218.105469 L 66.828125 218.136719 L 66.945312 218.019531 L 66.945312 217.433594 L 67.050781 217.324219 L 67.050781 217.136719 L 67.261719 216.957031 L 67.402344 216.957031 L 67.484375 216.871094 L 67.644531 216.871094 L 67.75 216.765625 L 67.960938 216.765625 L 68.0625 216.667969 L 68.0625 216.558594 L 68.339844 216.558594 L 68.785156 216.71875 L 68.695312 216.472656 L 68.589844 216.355469 L 68.570312 216.261719 L 68.582031 216.191406 L 68.390625 216.019531 L 68.234375 216.019531 L 68.152344 215.972656 L 68.015625 215.964844 L 67.980469 215.933594 L 68.339844 215.917969 L 68.351562 215.867188 L 68.339844 215.714844 L 68.277344 215.601562 L 68.292969 214.976562 L 68.351562 214.863281 L 68.515625 214.710938 L 68.726562 214.632812 L 68.726562 214.488281 L 68.65625 214.40625 L 68.589844 214.375 L 68.4375 214.375 L 68.605469 214.34375 L 68.589844 214.214844 L 68.878906 214.554688 L 69.085938 214.480469 L 69.234375 214.328125 L 69.273438 214.113281 L 69.335938 214 L 69.339844 213.636719 L 69.738281 213.1875 L 69.863281 213.136719 L 69.941406 213.03125 L 70.675781 212.515625 L 70.667969 212.449219 L 70.554688 212.410156 L 70.335938 212.410156 L 70.503906 212.335938 L 70.714844 212.105469 L 70.742188 211.980469 L 70.699219 211.855469 L 70.699219 211.757812 L 70.503906 211.644531 L 69.910156 211.578125 L 69.480469 211.109375 L 69.367188 210.84375 L 69.613281 210.308594 L 70.007812 209.980469 L 70.238281 209.980469 L 70.417969 209.796875 L 70.742188 209.796875 L 70.773438 209.597656 L 70.855469 209.492188 L 70.945312 209.425781 L 71.078125 209.050781 L 71.039062 208.621094 L 71.25 208.277344 L 71.480469 208.125 L 71.664062 208.074219 L 71.722656 208.007812 L 71.597656 207.96875 L 71.289062 207.699219 L 71.519531 207.578125 L 71.757812 207.632812 L 71.863281 207.730469 L 71.894531 207.875 L 72.09375 207.875 L 72.308594 207.769531 L 72.371094 207.617188 L 72.308594 207.308594 L 72.171875 207.242188 L 71.847656 207.332031 L 71.949219 207.433594 L 71.933594 207.511719 L 71.75 207.527344 L 71.484375 207.277344 L 71.3125 207.222656 L 71.261719 206.933594 L 71.300781 206.78125 L 71.195312 206.453125 L 71.222656 206.140625 L 71.335938 206.074219 L 72.203125 206.425781 L 73.042969 206.265625 L 73.253906 206.042969 L 73.289062 205.949219 L 73.121094 205.679688 L 73.164062 205.328125 L 73.289062 205.285156 L 73.40625 205.070312 L 73.351562 204.933594 L 73.226562 204.808594 L 73.222656 204.519531 L 73.339844 204.425781 L 73.429688 204.484375 L 75.917969 204.1875 L 75.964844 204.140625 L 76.558594 203.882812 L 76.683594 203.710938 L 76.71875 203.585938 L 77.246094 202.914062 L 77.359375 202.460938 L 77.339844 202.289062 L 77.015625 202.273438 L 76.890625 202.144531 L 76.832031 201.777344 L 76.949219 201.582031 L 76.921875 201.4375 L 75.992188 200.742188 L 75.90625 200.511719 L 76.019531 199.707031 L 76.097656 199.675781 L 76.183594 199.542969 L 76.203125 199.171875 L 76.25 199.535156 L 76.066406 200.136719 L 76.113281 200.339844 L 76.523438 200.757812 L 77.023438 200.789062 L 77.351562 201.007812 L 77.480469 201.007812 L 77.742188 201.164062 L 77.820312 201.171875 L 77.960938 201.074219 L 78.121094 201.039062 L 78.460938 201.152344 L 78.792969 201.078125 L 79.867188 200 L 79.984375 199.945312 L 80.269531 199.636719 L 80.269531 199.476562 L 80.605469 198.929688 L 80.605469 198.710938 L 80.539062 198.644531 L 80.519531 198.515625 L 81.171875 197.710938 L 81.1875 197.570312 L 81.320312 197.4375 L 81.261719 197.386719 L 81.226562 197.261719 L 81.277344 197.3125 L 81.472656 197.40625 L 81.628906 197.359375 L 81.734375 197.378906 L 81.726562 197.511719 L 81.449219 198.023438 L 81.320312 198.023438 L 81.277344 198.191406 L 80.664062 198.683594 L 80.664062 198.824219 L 81.40625 198.25 L 83.164062 195.730469 L 83.164062 195.578125 L 83.21875 195.484375 L 83.191406 194.839844 L 83.101562 194.75 L 83.082031 194.539062 L 83.140625 194.375 L 83.140625 194.296875 L 83.03125 194.296875 L 83.003906 194.183594 L 83.214844 193.894531 L 83.214844 193.707031 L 83.183594 193.617188 L 83.28125 193.492188 L 83.558594 193.464844 L 83.597656 193.308594 L 83.894531 193.023438 L 84.113281 192.9375 L 84.4375 192.609375 L 84.996094 192.332031 L 85.558594 192.417969 L 85.515625 192.277344 L 85.464844 192.226562 L 86.109375 191.980469 L 86.109375 191.769531 L 86.257812 191.695312 L 86.652344 191.671875 L 86.757812 191.730469 L 87.070312 191.671875 L 87.148438 191.546875 L 87.195312 191.675781 L 87.273438 191.710938 L 87.925781 191.664062 L 87.980469 191.335938 L 88.085938 191.1875 L 88.582031 191.007812 L 88.792969 190.085938 L 88.945312 190.027344 L 89.023438 189.933594 L 89.117188 189.652344 L 89.261719 189.558594 L 89.261719 189.441406 L 89.542969 189.105469 L 89.609375 188.917969 L 89.628906 188.074219 L 89.945312 187.753906 L 90.046875 184.546875 L 90.308594 184.207031 L 90.257812 184.207031 L 90.191406 184.148438 L 90.203125 184.039062 L 90.328125 183.964844 L 90.566406 184.097656 L 90.691406 184.015625 L 91.234375 183.25 L 91.273438 182.988281 L 91.386719 182.871094 L 91.40625 182.765625 L 92.976562 181.101562 L 93.128906 179.816406 Z M 53.734375 161.53125 L 53.734375 163.050781 L 53.714844 161.550781 L 53.820312 161.445312 Z M 67.671875 188.15625 L 67.625 188.15625 L 67.78125 188.046875 Z M 67.671875 188.15625 " fill-opacity="1" fill-rule="nonzero"/></g><path fill="#ffffff" d="M 57.238281 158.445312 L 57.246094 158.558594 L 57.589844 158.332031 L 58.136719 158.1875 L 58.558594 157.898438 L 59.238281 157.984375 L 59.203125 158.101562 L 59.027344 158.226562 L 59.554688 158.300781 L 59.613281 158.359375 L 59.746094 158.410156 L 60.015625 158.351562 L 60.160156 158.40625 L 60.542969 158.714844 L 61.097656 158.835938 L 61.316406 158.796875 L 61.410156 158.886719 L 61.449219 159.007812 L 61.449219 159.203125 L 61.730469 159.460938 L 62.21875 159.453125 L 62.464844 159.539062 L 62.558594 159.632812 L 62.464844 159.765625 L 62.265625 159.835938 L 62.109375 160.003906 L 62.207031 160.101562 L 62.53125 160.054688 L 62.664062 159.976562 L 63.84375 160.082031 L 63.949219 160.046875 L 64.121094 159.871094 L 64.523438 159.871094 L 64.621094 159.769531 L 64.523438 159.671875 L 64.371094 159.632812 L 64.257812 159.5 L 63.863281 159.367188 L 63.59375 159.367188 L 63.46875 159.242188 L 63.46875 159.144531 L 63.023438 159.050781 L 62.851562 158.867188 L 62.609375 158.789062 L 62.40625 158.628906 L 62.351562 158.609375 L 62.320312 158.585938 L 61.792969 158.445312 L 61.699219 158.359375 L 61.03125 158.128906 L 60.863281 158.128906 L 60.523438 157.757812 L 60.136719 157.699219 L 59.964844 157.59375 L 59.496094 157.535156 L 59.304688 157.59375 L 58.921875 157.527344 L 57.378906 158.011719 L 57.1875 158.253906 L 57.285156 158.351562 Z M 57.238281 158.445312 " fill-opacity="1" fill-rule="nonzero"/><g clip-path="url(#65eaba4839)"><path fill="#d82020" d="M 223.867188 211.308594 C 222.789062 210.484375 221.28125 210.339844 219.972656 210.269531 C 218.597656 210.195312 217.222656 210.289062 215.847656 210.257812 C 211.65625 210.160156 207.453125 210.324219 203.273438 210.601562 C 195.625 211.105469 187.78125 212.738281 180.152344 211.226562 C 176.359375 210.472656 172.773438 209.527344 168.871094 210.050781 C 166.984375 210.304688 165.070312 210.742188 163.160156 210.527344 C 161.605469 210.351562 160.863281 209.964844 159.816406 208.964844 C 158.5 207.707031 156.410156 204.808594 154.269531 205.496094 C 151.910156 206.257812 151.84375 209.542969 151.832031 211.566406 C 151.808594 214.632812 151.824219 217.96875 151.796875 221.183594 C 151.785156 222.386719 151.761719 223.617188 151.683594 224.84375 C 151.570312 223.226562 151.441406 221.609375 151.195312 220.007812 C 150.589844 216.003906 149.304688 212.148438 148.617188 208.164062 C 147.894531 203.964844 147.511719 199.6875 146.976562 195.460938 C 146.488281 191.628906 146.09375 187.769531 145.128906 184.023438 C 144.15625 180.246094 142.804688 176.386719 142.949219 172.4375 C 142.992188 171.273438 141.265625 171.085938 140.808594 172.023438 C 138.949219 175.839844 138.203125 180.0625 137.761719 184.25 C 137.375 187.933594 137.011719 191.667969 136.824219 195.367188 C 136.699219 197.824219 136.71875 200.289062 136.5 202.742188 C 136.300781 205.027344 136.003906 207.625 134.742188 209.601562 C 133.585938 211.410156 131.230469 211.871094 129.5 210.464844 C 128.292969 209.484375 127.503906 208.074219 126.273438 207.117188 C 125.121094 206.21875 123.574219 205.738281 122.136719 206.191406 C 119.242188 207.105469 119.003906 210.714844 116.601562 212.179688 C 114.882812 213.230469 112.6875 213.128906 110.75 213.042969 C 108.28125 212.9375 105.816406 212.945312 103.347656 213.007812 C 100.484375 213.078125 97.601562 213.03125 94.75 213.273438 C 92.101562 213.5 89.488281 213.949219 86.855469 214.285156 C 84.808594 214.542969 82.726562 214.398438 80.667969 214.386719 C 78.765625 214.375 76.75 214.335938 74.953125 215.042969 C 73.832031 215.484375 74.703125 217.128906 75.8125 216.703125 C 77.335938 216.121094 79.199219 216.277344 80.792969 216.308594 C 82.628906 216.347656 84.46875 216.441406 86.304688 216.324219 C 88.601562 216.175781 90.886719 215.730469 93.175781 215.488281 C 95.8125 215.207031 98.433594 215.207031 101.082031 215.171875 C 103.746094 215.132812 106.417969 215.027344 109.082031 215.121094 C 111.339844 215.203125 113.628906 215.457031 115.839844 214.859375 C 117.503906 214.410156 118.933594 213.410156 119.894531 211.980469 C 120.625 210.898438 121.160156 209.511719 122.15625 208.636719 C 124.445312 206.617188 126.753906 211.03125 128.191406 212.179688 C 130.324219 213.875 133.417969 213.941406 135.507812 212.136719 C 137.324219 210.566406 138.097656 207.96875 138.480469 205.683594 C 138.933594 203 139.015625 200.273438 139.078125 197.558594 C 139.164062 194.046875 139.515625 190.546875 139.796875 187.046875 C 140.046875 183.878906 140.382812 180.640625 141.195312 177.546875 C 141.578125 179.394531 142.117188 181.222656 142.609375 183.015625 C 143.625 186.730469 144.085938 190.484375 144.550781 194.296875 C 145.074219 198.558594 145.554688 202.824219 146.09375 207.085938 C 146.597656 211.058594 147.785156 214.882812 148.542969 218.808594 C 149.429688 223.386719 149.226562 228.078125 150.019531 232.667969 C 150.226562 233.867188 151.835938 234.035156 152.335938 232.953125 C 155.035156 227.109375 154.015625 220.238281 154.210938 214.011719 C 154.242188 213.046875 154.21875 212.085938 154.25 211.121094 C 154.28125 210.171875 154.253906 208.878906 154.785156 208.039062 C 154.808594 208 154.875 207.898438 154.914062 207.847656 C 155.246094 208.027344 155.535156 208.214844 155.835938 208.464844 C 156.777344 209.238281 157.605469 210.136719 158.484375 210.976562 C 160.757812 213.148438 163.972656 213.175781 166.933594 212.792969 C 168.84375 212.542969 170.710938 212.214844 172.644531 212.359375 C 174.40625 212.488281 176.132812 212.878906 177.851562 213.265625 C 181.53125 214.09375 185.164062 214.40625 188.9375 214.289062 C 192.71875 214.171875 196.484375 213.726562 200.25 213.382812 C 204.609375 212.984375 209.007812 212.777344 213.382812 212.804688 C 215.085938 212.816406 216.789062 212.867188 218.492188 212.859375 C 219.75 212.855469 221.441406 212.722656 222.5 213.535156 C 223.832031 214.558594 225.1875 212.324219 223.867188 211.3125 Z M 223.867188 211.308594 " fill-opacity="1" fill-rule="nonzero"/></g><g transform="matrix(1, 0, 0, 1, 105, 166)"><g clip-path="url(#b331a149c4)"><g fill="#d82020" fill-opacity="1"><g transform="translate(0.733093, 37.103525)"><g><path d="M 19.21875 -7.40625 L 19.921875 -7.90625 C 20.796875 -8.425781 21.410156 -8.6875 21.765625 -8.6875 C 22.566406 -8.6875 23.429688 -7.960938 24.359375 -6.515625 C 24.921875 -5.617188 25.203125 -4.898438 25.203125 -4.359375 C 25.203125 -3.816406 25.023438 -3.363281 24.671875 -3 C 24.328125 -2.644531 23.921875 -2.328125 23.453125 -2.046875 C 22.992188 -1.765625 22.550781 -1.492188 22.125 -1.234375 C 21.707031 -0.972656 20.84375 -0.632812 19.53125 -0.21875 C 18.21875 0.1875 16.945312 0.390625 15.71875 0.390625 C 14.5 0.390625 13.265625 0.226562 12.015625 -0.09375 C 10.773438 -0.414062 9.488281 -0.957031 8.15625 -1.71875 C 6.832031 -2.476562 5.644531 -3.40625 4.59375 -4.5 C 3.539062 -5.59375 2.671875 -6.992188 1.984375 -8.703125 C 1.304688 -10.410156 0.96875 -12.269531 0.96875 -14.28125 C 0.96875 -16.289062 1.300781 -18.109375 1.96875 -19.734375 C 2.632812 -21.367188 3.488281 -22.71875 4.53125 -23.78125 C 5.570312 -24.851562 6.765625 -25.75 8.109375 -26.46875 C 10.628906 -27.863281 13.160156 -28.5625 15.703125 -28.5625 C 16.910156 -28.5625 18.140625 -28.375 19.390625 -28 C 20.640625 -27.625 21.585938 -27.242188 22.234375 -26.859375 L 23.15625 -26.328125 C 23.613281 -26.035156 23.972656 -25.800781 24.234375 -25.625 C 24.898438 -25.082031 25.234375 -24.46875 25.234375 -23.78125 C 25.234375 -23.101562 24.96875 -22.394531 24.4375 -21.65625 C 23.425781 -20.257812 22.523438 -19.5625 21.734375 -19.5625 C 21.265625 -19.5625 20.609375 -19.847656 19.765625 -20.421875 C 18.679688 -21.296875 17.238281 -21.734375 15.4375 -21.734375 C 13.757812 -21.734375 12.113281 -21.148438 10.5 -19.984375 C 9.726562 -19.421875 9.082031 -18.625 8.5625 -17.59375 C 8.050781 -16.570312 7.796875 -15.410156 7.796875 -14.109375 C 7.796875 -12.804688 8.050781 -11.640625 8.5625 -10.609375 C 9.082031 -9.578125 9.738281 -8.769531 10.53125 -8.1875 C 12.101562 -7.050781 13.738281 -6.484375 15.4375 -6.484375 C 16.238281 -6.484375 16.988281 -6.582031 17.6875 -6.78125 C 18.394531 -6.988281 18.90625 -7.195312 19.21875 -7.40625 Z M 19.21875 -7.40625 "/></g></g></g><g fill="#d82020" fill-opacity="1"><g transform="translate(26.942766, 37.103525)"><g/></g></g><g fill="#d82020" fill-opacity="1"><g transform="translate(36.705635, 37.103525)"><g/></g></g><g fill="#d82020" fill-opacity="1"><g transform="translate(46.469606, 37.103525)"><g><path d="M 23.1875 -4.78125 C 23.582031 -3.851562 23.78125 -3.1875 23.78125 -2.78125 C 23.78125 -1.800781 22.976562 -0.976562 21.375 -0.3125 C 20.550781 0.0507812 19.890625 0.234375 19.390625 0.234375 C 18.890625 0.234375 18.476562 0.113281 18.15625 -0.125 C 17.832031 -0.375 17.59375 -0.628906 17.4375 -0.890625 C 17.1875 -1.378906 16.1875 -3.707031 14.4375 -7.875 L 13.234375 -7.796875 L 8.375 -7.796875 L 8.375 -3.4375 C 8.375 -2.84375 8.351562 -2.394531 8.3125 -2.09375 C 8.28125 -1.800781 8.160156 -1.460938 7.953125 -1.078125 C 7.585938 -0.378906 6.582031 -0.03125 4.9375 -0.03125 C 3.132812 -0.03125 2.082031 -0.507812 1.78125 -1.46875 C 1.625 -1.90625 1.546875 -2.570312 1.546875 -3.46875 L 1.546875 -24.890625 C 1.546875 -25.484375 1.5625 -25.925781 1.59375 -26.21875 C 1.632812 -26.519531 1.757812 -26.863281 1.96875 -27.25 C 2.332031 -27.945312 3.335938 -28.296875 4.984375 -28.296875 L 13.3125 -28.296875 C 15.582031 -28.296875 17.785156 -27.46875 19.921875 -25.8125 C 20.941406 -25.019531 21.785156 -23.941406 22.453125 -22.578125 C 23.128906 -21.210938 23.46875 -19.691406 23.46875 -18.015625 C 23.46875 -15.109375 22.503906 -12.71875 20.578125 -10.84375 C 21.140625 -9.476562 22.007812 -7.457031 23.1875 -4.78125 Z M 8.375 -14.625 L 13.3125 -14.625 C 14.0625 -14.625 14.804688 -14.90625 15.546875 -15.46875 C 16.296875 -16.039062 16.671875 -16.890625 16.671875 -18.015625 C 16.671875 -19.148438 16.296875 -20.003906 15.546875 -20.578125 C 14.804688 -21.160156 14.035156 -21.453125 13.234375 -21.453125 L 8.375 -21.453125 Z M 8.375 -14.625 "/></g></g></g><g fill="#d82020" fill-opacity="1"><g transform="translate(70.818897, 37.103525)"><g><path d="M 4.984375 -28.328125 L 12.125 -28.296875 C 15.851562 -28.296875 19.128906 -26.945312 21.953125 -24.25 C 24.785156 -21.5625 26.203125 -18.253906 26.203125 -14.328125 C 26.203125 -10.410156 24.816406 -7.046875 22.046875 -4.234375 C 19.285156 -1.429688 15.9375 -0.03125 12 -0.03125 L 4.9375 -0.03125 C 3.363281 -0.03125 2.382812 -0.351562 2 -1 C 1.695312 -1.539062 1.546875 -2.363281 1.546875 -3.46875 L 1.546875 -24.9375 C 1.546875 -25.550781 1.5625 -26 1.59375 -26.28125 C 1.632812 -26.5625 1.757812 -26.894531 1.96875 -27.28125 C 2.332031 -27.976562 3.335938 -28.328125 4.984375 -28.328125 Z M 12.125 -6.875 C 13.96875 -6.875 15.632812 -7.5625 17.125 -8.9375 C 18.625 -10.3125 19.375 -12.039062 19.375 -14.125 C 19.375 -16.207031 18.644531 -17.945312 17.1875 -19.34375 C 15.738281 -20.75 14.035156 -21.453125 12.078125 -21.453125 L 8.375 -21.453125 L 8.375 -6.875 Z M 12.125 -6.875 "/></g></g></g><g fill="#d82020" fill-opacity="1"><g transform="translate(97.98514, 37.103525)"><g><path d="M 1.546875 -24.890625 C 1.546875 -25.484375 1.5625 -25.925781 1.59375 -26.21875 C 1.632812 -26.519531 1.757812 -26.863281 1.96875 -27.25 C 2.332031 -27.945312 3.335938 -28.296875 4.984375 -28.296875 C 6.785156 -28.296875 7.851562 -27.816406 8.1875 -26.859375 C 8.3125 -26.421875 8.375 -25.753906 8.375 -24.859375 L 8.375 -3.390625 C 8.375 -2.773438 8.351562 -2.328125 8.3125 -2.046875 C 8.28125 -1.765625 8.160156 -1.429688 7.953125 -1.046875 C 7.585938 -0.347656 6.582031 0 4.9375 0 C 3.132812 0 2.082031 -0.488281 1.78125 -1.46875 C 1.625 -1.875 1.546875 -2.53125 1.546875 -3.4375 Z M 1.546875 -24.890625 "/></g></g></g><g fill="#d82020" fill-opacity="1"><g transform="translate(107.902367, 37.103525)"><g><path d="M 14.8125 -28.640625 C 18.625 -28.640625 21.929688 -27.257812 24.734375 -24.5 C 27.546875 -21.75 28.953125 -18.332031 28.953125 -14.25 C 28.953125 -10.175781 27.613281 -6.703125 24.9375 -3.828125 C 22.257812 -0.960938 18.960938 0.46875 15.046875 0.46875 C 11.140625 0.46875 7.816406 -0.945312 5.078125 -3.78125 C 2.335938 -6.613281 0.96875 -9.984375 0.96875 -13.890625 C 0.96875 -16.023438 1.351562 -18.023438 2.125 -19.890625 C 2.894531 -21.753906 3.921875 -23.316406 5.203125 -24.578125 C 6.492188 -25.835938 7.972656 -26.828125 9.640625 -27.546875 C 11.316406 -28.273438 13.039062 -28.640625 14.8125 -28.640625 Z M 7.796875 -14.078125 C 7.796875 -11.796875 8.535156 -9.941406 10.015625 -8.515625 C 11.492188 -7.085938 13.144531 -6.375 14.96875 -6.375 C 16.800781 -6.375 18.445312 -7.066406 19.90625 -8.453125 C 21.375 -9.835938 22.109375 -11.703125 22.109375 -14.046875 C 22.109375 -16.390625 21.367188 -18.269531 19.890625 -19.6875 C 18.410156 -21.101562 16.757812 -21.8125 14.9375 -21.8125 C 13.113281 -21.8125 11.46875 -21.09375 10 -19.65625 C 8.53125 -18.226562 7.796875 -16.367188 7.796875 -14.078125 Z M 7.796875 -14.078125 "/></g></g></g><g fill="#d82020" fill-opacity="1"><g transform="translate(137.80839, 37.103525)"><g><path d="M 12.921875 -5.359375 L 3.75 -5.359375 C 2.300781 -5.359375 1.4375 -5.796875 1.15625 -6.671875 C 1.03125 -7.140625 0.96875 -7.734375 0.96875 -8.453125 C 0.96875 -9.171875 1.039062 -9.75 1.1875 -10.1875 C 1.34375 -10.625 1.59375 -10.929688 1.9375 -11.109375 C 2.394531 -11.347656 3.007812 -11.46875 3.78125 -11.46875 L 12.96875 -11.46875 C 14.40625 -11.46875 15.253906 -11.039062 15.515625 -10.1875 C 15.671875 -9.726562 15.75 -9.132812 15.75 -8.40625 C 15.75 -7.6875 15.675781 -7.101562 15.53125 -6.65625 C 15.394531 -6.207031 15.171875 -5.894531 14.859375 -5.71875 C 14.390625 -5.476562 13.742188 -5.359375 12.921875 -5.359375 Z M 12.921875 -5.359375 "/></g></g></g><g fill="#d82020" fill-opacity="1"><g transform="translate(154.517177, 37.103525)"><g><path d="M 31.609375 -27.203125 C 31.816406 -26.816406 31.9375 -26.46875 31.96875 -26.15625 C 32.007812 -25.851562 32.03125 -25.40625 32.03125 -24.8125 L 32.03125 -3.390625 C 32.03125 -1.617188 31.539062 -0.578125 30.5625 -0.265625 C 30.070312 -0.109375 29.453125 -0.03125 28.703125 -0.03125 C 27.960938 -0.03125 27.375 -0.09375 26.9375 -0.21875 C 26.5 -0.351562 26.164062 -0.507812 25.9375 -0.6875 C 25.707031 -0.875 25.523438 -1.132812 25.390625 -1.46875 C 25.265625 -1.90625 25.203125 -2.570312 25.203125 -3.46875 L 25.203125 -16.40625 C 24.554688 -15.601562 23.613281 -14.332031 22.375 -12.59375 C 21.144531 -10.863281 20.363281 -9.78125 20.03125 -9.34375 C 19.695312 -8.90625 19.460938 -8.601562 19.328125 -8.4375 C 19.203125 -8.269531 18.890625 -8.035156 18.390625 -7.734375 C 17.890625 -7.441406 17.347656 -7.296875 16.765625 -7.296875 C 16.191406 -7.296875 15.664062 -7.429688 15.1875 -7.703125 C 14.707031 -7.972656 14.363281 -8.234375 14.15625 -8.484375 L 13.859375 -8.921875 C 13.335938 -9.554688 12.316406 -10.921875 10.796875 -13.015625 C 9.285156 -15.117188 8.46875 -16.25 8.34375 -16.40625 L 8.34375 -3.390625 C 8.34375 -2.804688 8.320312 -2.363281 8.28125 -2.0625 C 8.238281 -1.769531 8.113281 -1.441406 7.90625 -1.078125 C 7.519531 -0.378906 6.519531 -0.03125 4.90625 -0.03125 C 3.332031 -0.03125 2.351562 -0.378906 1.96875 -1.078125 C 1.757812 -1.441406 1.632812 -1.773438 1.59375 -2.078125 C 1.5625 -2.390625 1.546875 -2.851562 1.546875 -3.46875 L 1.546875 -24.890625 C 1.546875 -25.484375 1.5625 -25.925781 1.59375 -26.21875 C 1.632812 -26.519531 1.757812 -26.863281 1.96875 -27.25 C 2.351562 -27.914062 3.359375 -28.25 4.984375 -28.25 C 5.671875 -28.25 6.265625 -28.164062 6.765625 -28 C 7.273438 -27.832031 7.601562 -27.660156 7.75 -27.484375 L 7.984375 -27.25 L 16.75 -15.75 C 21.125 -21.539062 24.046875 -25.359375 25.515625 -27.203125 C 25.953125 -27.898438 26.984375 -28.25 28.609375 -28.25 C 30.242188 -28.25 31.242188 -27.898438 31.609375 -27.203125 Z M 31.609375 -27.203125 "/></g></g></g><g fill="#d82020" fill-opacity="1"><g transform="translate(188.089094, 37.103525)"><g><path d="M 8.375 -6.828125 L 20.265625 -6.828125 C 20.859375 -6.828125 21.300781 -6.804688 21.59375 -6.765625 C 21.882812 -6.734375 22.222656 -6.613281 22.609375 -6.40625 C 23.304688 -6.039062 23.65625 -5.035156 23.65625 -3.390625 C 23.65625 -1.585938 23.179688 -0.535156 22.234375 -0.234375 C 21.796875 -0.078125 21.125 0 20.21875 0 L 4.9375 0 C 3.132812 0 2.082031 -0.488281 1.78125 -1.46875 C 1.625 -1.875 1.546875 -2.53125 1.546875 -3.4375 L 1.546875 -24.890625 C 1.546875 -26.203125 1.789062 -27.097656 2.28125 -27.578125 C 2.769531 -28.054688 3.695312 -28.296875 5.0625 -28.296875 L 20.265625 -28.296875 C 20.859375 -28.296875 21.300781 -28.273438 21.59375 -28.234375 C 21.882812 -28.191406 22.222656 -28.066406 22.609375 -27.859375 C 23.304688 -27.503906 23.65625 -26.503906 23.65625 -24.859375 C 23.65625 -23.054688 23.179688 -22 22.234375 -21.6875 C 21.796875 -21.53125 21.125 -21.453125 20.21875 -21.453125 L 8.375 -21.453125 L 8.375 -17.5625 L 16.015625 -17.5625 C 16.609375 -17.5625 17.050781 -17.539062 17.34375 -17.5 C 17.644531 -17.457031 17.988281 -17.335938 18.375 -17.140625 C 19.0625 -16.773438 19.40625 -15.769531 19.40625 -14.125 C 19.40625 -12.320312 18.921875 -11.265625 17.953125 -10.953125 C 17.515625 -10.804688 16.84375 -10.734375 15.9375 -10.734375 L 8.375 -10.734375 Z M 8.375 -6.828125 "/></g></g></g><g fill="#d82020" fill-opacity="1"><g transform="translate(212.708508, 37.103525)"><g><path d="M 3.390625 -28.328125 L 24.859375 -28.328125 C 25.679688 -28.328125 26.285156 -28.226562 26.671875 -28.03125 C 27.054688 -27.84375 27.3125 -27.539062 27.4375 -27.125 C 27.570312 -26.71875 27.640625 -26.175781 27.640625 -25.5 C 27.640625 -24.832031 27.570312 -24.300781 27.4375 -23.90625 C 27.3125 -23.507812 27.09375 -23.234375 26.78125 -23.078125 C 26.320312 -22.847656 25.664062 -22.734375 24.8125 -22.734375 L 17.4375 -22.734375 L 17.4375 -3.3125 C 17.4375 -2.726562 17.414062 -2.289062 17.375 -2 C 17.34375 -1.71875 17.226562 -1.390625 17.03125 -1.015625 C 16.84375 -0.648438 16.503906 -0.390625 16.015625 -0.234375 C 15.523438 -0.078125 14.878906 0 14.078125 0 C 13.285156 0 12.648438 -0.078125 12.171875 -0.234375 C 11.703125 -0.390625 11.367188 -0.648438 11.171875 -1.015625 C 10.984375 -1.390625 10.867188 -1.722656 10.828125 -2.015625 C 10.785156 -2.316406 10.765625 -2.765625 10.765625 -3.359375 L 10.765625 -22.734375 L 3.359375 -22.734375 C 2.535156 -22.734375 1.929688 -22.828125 1.546875 -23.015625 C 1.160156 -23.210938 0.898438 -23.515625 0.765625 -23.921875 C 0.640625 -24.335938 0.578125 -24.878906 0.578125 -25.546875 C 0.578125 -26.210938 0.640625 -26.742188 0.765625 -27.140625 C 0.898438 -27.546875 1.117188 -27.828125 1.421875 -27.984375 C 1.890625 -28.210938 2.546875 -28.328125 3.390625 -28.328125 Z M 3.390625 -28.328125 "/></g></g></g></g></g><g transform="matrix(1, 0, 0, 1, 156, 215)"><g clip-path="url(#a7d3ebd25c)"><g fill="#c40101" fill-opacity="1"><g transform="translate(1.145356, 15.718484)"><g><path d="M 8.640625 0 L 0.875 0 L 0.875 -12.140625 L 2.78125 -12.140625 L 2.78125 -1.796875 L 8.640625 -1.796875 Z M 8.640625 0 "/></g></g></g><g fill="#c40101" fill-opacity="1"><g transform="translate(14.885592, 15.718484)"><g><path d="M 11.875 0 L 9.890625 0 L 8.640625 -3.375 L 3.4375 -3.375 L 2.203125 0 L 0.21875 0 L 4.859375 -12.140625 L 7.1875 -12.140625 Z M 8.015625 -5.03125 L 6.03125 -10.25 L 4.0625 -5.03125 Z M 8.015625 -5.03125 "/></g></g></g><g fill="#c40101" fill-opacity="1"><g transform="translate(31.7828, 15.718484)"><g><path d="M 6.171875 0 L 4.25 0 L 4.25 -10.359375 L 0.296875 -10.359375 L 0.296875 -12.140625 L 10.109375 -12.140625 L 10.109375 -10.359375 L 6.171875 -10.359375 Z M 6.171875 0 "/></g></g></g><g fill="#c40101" fill-opacity="1"><g transform="translate(46.989303, 15.718484)"><g><path d="M 11.875 0 L 9.890625 0 L 8.640625 -3.375 L 3.4375 -3.375 L 2.203125 0 L 0.21875 0 L 4.859375 -12.140625 L 7.1875 -12.140625 Z M 8.015625 -5.03125 L 6.03125 -10.25 L 4.0625 -5.03125 Z M 8.015625 -5.03125 "/></g></g></g><g fill="#c40101" fill-opacity="1"><g transform="translate(63.886511, 15.718484)"><g><path d="M 6.84375 -2.015625 L 9.8125 -12.140625 L 12.8125 -12.140625 L 12.8125 0 L 10.890625 0 L 10.890625 -10.375 L 7.859375 0 L 5.828125 0 L 2.765625 -10.375 L 2.765625 0 L 0.875 0 L 0.875 -12.140625 L 3.84375 -12.140625 Z M 6.84375 -2.015625 "/></g></g></g></g></g><g transform="matrix(1, 0, 0, 1, 105, 149)"><g clip-path="url(#0746933c42)"><g fill="#c40101" fill-opacity="1"><g transform="translate(0.733093, 16.083425)"><g><path d="M 4.890625 0.171875 C 4.085938 0.171875 3.3125 0.078125 2.5625 -0.109375 C 1.8125 -0.304688 1.164062 -0.582031 0.625 -0.9375 L 1.375 -2.53125 C 1.832031 -2.21875 2.359375 -1.972656 2.953125 -1.796875 C 3.554688 -1.617188 4.175781 -1.53125 4.8125 -1.53125 C 5.644531 -1.53125 6.304688 -1.6875 6.796875 -2 C 7.285156 -2.320312 7.53125 -2.757812 7.53125 -3.3125 L 7.53125 -3.34375 C 7.53125 -3.65625 7.429688 -3.921875 7.234375 -4.140625 C 7.046875 -4.359375 6.722656 -4.566406 6.265625 -4.765625 C 5.804688 -4.960938 5.195312 -5.179688 4.4375 -5.421875 C 3.5625 -5.691406 2.867188 -5.984375 2.359375 -6.296875 C 1.859375 -6.609375 1.5 -6.984375 1.28125 -7.421875 C 1.070312 -7.867188 0.96875 -8.414062 0.96875 -9.0625 L 0.96875 -9.09375 C 0.96875 -9.738281 1.132812 -10.304688 1.46875 -10.796875 C 1.800781 -11.285156 2.28125 -11.660156 2.90625 -11.921875 C 3.539062 -12.191406 4.296875 -12.328125 5.171875 -12.328125 C 5.910156 -12.328125 6.632812 -12.238281 7.34375 -12.0625 C 8.0625 -11.882812 8.675781 -11.625 9.1875 -11.28125 L 8.453125 -9.703125 C 8.015625 -10.003906 7.503906 -10.234375 6.921875 -10.390625 C 6.347656 -10.546875 5.765625 -10.625 5.171875 -10.625 C 4.410156 -10.625 3.835938 -10.484375 3.453125 -10.203125 C 3.078125 -9.921875 2.890625 -9.5625 2.890625 -9.125 L 2.890625 -9.109375 C 2.890625 -8.785156 2.972656 -8.507812 3.140625 -8.28125 C 3.304688 -8.0625 3.570312 -7.863281 3.9375 -7.6875 C 4.300781 -7.507812 4.785156 -7.320312 5.390625 -7.125 C 6.410156 -6.800781 7.21875 -6.476562 7.8125 -6.15625 C 8.40625 -5.832031 8.828125 -5.453125 9.078125 -5.015625 C 9.335938 -4.585938 9.46875 -4.039062 9.46875 -3.375 L 9.46875 -3.34375 C 9.46875 -2.238281 9.054688 -1.375 8.234375 -0.75 C 7.421875 -0.132812 6.304688 0.171875 4.890625 0.171875 Z M 4.890625 0.171875 "/></g></g></g><g fill="#c40101" fill-opacity="1"><g transform="translate(15.760049, 16.083425)"><g><path d="M 11.875 0 L 9.890625 0 L 8.640625 -3.375 L 3.4375 -3.375 L 2.203125 0 L 0.21875 0 L 4.859375 -12.140625 L 7.1875 -12.140625 Z M 8.015625 -5.03125 L 6.03125 -10.25 L 4.0625 -5.03125 Z M 8.015625 -5.03125 "/></g></g></g><g fill="#c40101" fill-opacity="1"><g transform="translate(32.657257, 16.083425)"><g><path d="M 8.640625 0 L 0.875 0 L 0.875 -12.140625 L 2.78125 -12.140625 L 2.78125 -1.796875 L 8.640625 -1.796875 Z M 8.640625 0 "/></g></g></g><g fill="#c40101" fill-opacity="1"><g transform="translate(46.397494, 16.083425)"><g><path d="M 5.875 0.171875 C 4.6875 0.171875 3.722656 -0.0195312 2.984375 -0.40625 C 2.253906 -0.789062 1.71875 -1.347656 1.375 -2.078125 C 1.039062 -2.816406 0.875 -3.703125 0.875 -4.734375 L 0.875 -12.140625 L 2.78125 -12.140625 L 2.78125 -5.21875 C 2.78125 -4 3.007812 -3.101562 3.46875 -2.53125 C 3.9375 -1.957031 4.738281 -1.671875 5.875 -1.671875 C 7.03125 -1.671875 7.835938 -1.957031 8.296875 -2.53125 C 8.765625 -3.101562 9 -4 9 -5.21875 L 9 -12.140625 L 10.90625 -12.140625 L 10.90625 -4.734375 C 10.90625 -3.703125 10.734375 -2.816406 10.390625 -2.078125 C 10.054688 -1.347656 9.519531 -0.789062 8.78125 -0.40625 C 8.050781 -0.0195312 7.082031 0.171875 5.875 0.171875 Z M 5.875 0.171875 "/></g></g></g><g fill="#c40101" fill-opacity="1"><g transform="translate(62.965528, 16.083425)"><g><path d="M 4.78125 0 L 0.875 0 L 0.875 -12.140625 L 4.78125 -12.140625 C 6.15625 -12.140625 7.304688 -11.894531 8.234375 -11.40625 C 9.160156 -10.914062 9.859375 -10.222656 10.328125 -9.328125 C 10.804688 -8.441406 11.046875 -7.378906 11.046875 -6.140625 L 11.046875 -6.109375 C 11.046875 -4.859375 10.804688 -3.773438 10.328125 -2.859375 C 9.859375 -1.941406 9.15625 -1.234375 8.21875 -0.734375 C 7.289062 -0.242188 6.144531 0 4.78125 0 Z M 2.78125 -10.359375 L 2.78125 -1.796875 L 4.734375 -1.796875 C 6.117188 -1.796875 7.191406 -2.171875 7.953125 -2.921875 C 8.710938 -3.671875 9.09375 -4.734375 9.09375 -6.109375 L 9.09375 -6.140625 C 9.09375 -7.472656 8.710938 -8.507812 7.953125 -9.25 C 7.191406 -9.988281 6.117188 -10.359375 4.734375 -10.359375 Z M 2.78125 -10.359375 "/></g></g></g></g></g></svg>